HIERARCHY
ROOT Hips
{
	OFFSET 0.000000 89.005402 0.000000
	CHANNELS 6 Xposition Yposition Zposition Xrotation Yrotation Zrotation
	JOINT Spine
	{
		OFFSET 0.116900 10.681000 0.373400
		CHANNELS 3 Xrotation Yrotation Zrotation
		JOINT Spine1
		{
			OFFSET 0.000000 13.840401 0.053500
			CHANNELS 3 Xrotation Yrotation Zrotation
			JOINT Spine2
			{
				OFFSET 0.000000 14.712700 -0.366200
				CHANNELS 3 Xrotation Yrotation Zrotation
				JOINT Neck
				{
					OFFSET 0.000000 35.415497 -3.314200
					CHANNELS 3 Xrotation Yrotation Zrotation
					JOINT Head
					{
						OFFSET 0.000000 16.899200 1.218300
						CHANNELS 3 Xrotation Yrotation Zrotation
						JOINT HeadTop_End
						{
							OFFSET 0.000000 22.206207 2.192500
							CHANNELS 3 Xrotation Yrotation Zrotation
							End Site
							{
								OFFSET 0.000000 22.314178 0.000000
							}
						}
					}
				}
				JOINT LeftShoulder
				{
					OFFSET 12.896400 26.716293 -4.548400
					CHANNELS 3 Xrotation Yrotation Zrotation
					JOINT LeftArm
					{
						OFFSET 19.027000 -4.857010 -1.718400
						CHANNELS 3 Xrotation Yrotation Zrotation
						JOINT LeftForeArm
						{
							OFFSET 24.179897 0.000000 0.000000
							CHANNELS 3 Xrotation Yrotation Zrotation
							JOINT LeftHand
							{
								OFFSET 27.156403 0.000000 0.000000
								CHANNELS 3 Xrotation Yrotation Zrotation
								JOINT LeftHandIndex1
								{
									OFFSET 16.441200 0.000000 0.000000
									CHANNELS 3 Xrotation Yrotation Zrotation
									JOINT LeftHandIndex2
									{
										OFFSET 4.821899 0.000000 0.000000
										CHANNELS 3 Xrotation Yrotation Zrotation
										JOINT LeftHandIndex3
										{
											OFFSET 6.386497 0.000000 0.000000
											CHANNELS 3 Xrotation Yrotation Zrotation
											JOINT LeftHandIndex4
											{
												OFFSET 5.188988 0.000000 0.000000
												CHANNELS 3 Xrotation Yrotation Zrotation
												End Site
												{
													OFFSET -0.178703 5.185913 0.000177
												}
											}
										}
									}
								}
								JOINT LeftHandThumb1
								{
									OFFSET 6.534897 -5.032593 5.900300
									CHANNELS 3 Xrotation Yrotation Zrotation
									JOINT LeftHandThumb2
									{
										OFFSET 3.818176 -2.204422 2.204423
										CHANNELS 3 Xrotation Yrotation Zrotation
										JOINT LeftHandThumb3
										{
											OFFSET 3.252098 -1.877594 1.877601
											CHANNELS 3 Xrotation Yrotation Zrotation
											JOINT LeftHandThumb4
											{
												OFFSET 5.251778 -3.032120 3.032117
												CHANNELS 3 Xrotation Yrotation Zrotation
												End Site
												{
													OFFSET 0.000023 6.780014 0.000000
												}
											}
										}
									}
								}
							}
						}
					}
				}
				JOINT RightShoulder
				{
					OFFSET -12.896300 26.716293 -4.548400
					CHANNELS 3 Xrotation Yrotation Zrotation
					JOINT RightArm
					{
						OFFSET -19.027000 -4.857010 -1.718400
						CHANNELS 3 Xrotation Yrotation Zrotation
						JOINT RightForeArm
						{
							OFFSET -24.179897 0.000000 0.000000
							CHANNELS 3 Xrotation Yrotation Zrotation
							JOINT RightHand
							{
								OFFSET -27.156403 0.000000 0.000000
								CHANNELS 3 Xrotation Yrotation Zrotation
								JOINT RightHandThumb1
								{
									OFFSET -6.591202 -4.852203 5.988100
									CHANNELS 3 Xrotation Yrotation Zrotation
									JOINT RightHandThumb2
									{
										OFFSET -3.818176 -2.204422 2.204423
										CHANNELS 3 Xrotation Yrotation Zrotation
										JOINT RightHandThumb3
										{
											OFFSET -3.252098 -1.877594 1.877601
											CHANNELS 3 Xrotation Yrotation Zrotation
											JOINT RightHandThumb4
											{
												OFFSET -5.251778 -3.032120 3.032117
												CHANNELS 3 Xrotation Yrotation Zrotation
												End Site
												{
													OFFSET -0.000023 6.780014 0.000000
												}
											}
										}
									}
								}
								JOINT RightHandIndex1
								{
									OFFSET -16.029404 0.000000 0.000000
									CHANNELS 3 Xrotation Yrotation Zrotation
									JOINT RightHandIndex2
									{
										OFFSET -5.213303 0.000000 0.000000
										CHANNELS 3 Xrotation Yrotation Zrotation
										JOINT RightHandIndex3
										{
											OFFSET -6.386528 0.000000 0.000000
											CHANNELS 3 Xrotation Yrotation Zrotation
											JOINT RightHandIndex4
											{
												OFFSET -5.189026 0.000000 0.000000
												CHANNELS 3 Xrotation Yrotation Zrotation
												End Site
												{
													OFFSET 0.236702 5.183624 0.001972
												}
											}
										}
									}
								}
							}
						}
					}
				}
			}
		}
	}
	JOINT LeftUpLeg
	{
		OFFSET 14.073000 -7.904099 -1.463000
		CHANNELS 3 Xrotation Yrotation Zrotation
		JOINT LeftLeg
		{
			OFFSET -0.109806 -34.073280 4.093200
			CHANNELS 3 Xrotation Yrotation Zrotation
			JOINT LeftFoot
			{
				OFFSET 0.109806 -29.899420 -6.319000
				CHANNELS 3 Xrotation Yrotation Zrotation
				JOINT LeftToeBase
				{
					OFFSET 1.551100 -14.988700 20.535801
					CHANNELS 3 Xrotation Yrotation Zrotation
					JOINT LeftToe_End
					{
						OFFSET 0.221200 0.570800 13.248301
						CHANNELS 3 Xrotation Yrotation Zrotation
						End Site
						{
							OFFSET 0.000000 13.262435 0.000000
						}
					}
				}
			}
		}
	}
	JOINT RightUpLeg
	{
		OFFSET -13.839300 -7.904099 -1.463000
		CHANNELS 3 Xrotation Yrotation Zrotation
		JOINT RightLeg
		{
			OFFSET 0.109694 -34.073219 4.093300
			CHANNELS 3 Xrotation Yrotation Zrotation
			JOINT RightFoot
			{
				OFFSET -0.109694 -29.899384 -6.319200
				CHANNELS 3 Xrotation Yrotation Zrotation
				JOINT RightToeBase
				{
					OFFSET -1.551100 -14.988700 20.535801
					CHANNELS 3 Xrotation Yrotation Zrotation
					JOINT RightToe_End
					{
						OFFSET -0.221200 0.570900 13.248299
						CHANNELS 3 Xrotation Yrotation Zrotation
						End Site
						{
							OFFSET 0.000000 13.262440 0.000000
						}
					}
				}
			}
		}
	}
}
MOTION
Frames: 7
Frame Time: 0.033333
4.836154 82.811890 71.751068 7.764469 -0.142588 -0.541531 6.415720 -4.817183 1.724651 14.924563 -1.288884 0.550659 14.925874 -1.281701 0.568188 3.351573 0.017798 0.402605 22.427041 -0.043644 0.989391 -0.000001 -0.000000 0.000001 -0.510741 -13.134187 -22.479918 -29.950298 -32.593239 -48.083832 -0.000022 -20.680201 -0.000009 9.182931 -2.551261 5.930135 0.163287 3.541074 -16.208927 0.454522 2.264390 -22.697110 0.174198 1.419363 -13.992029 -0.000000 -0.000000 -0.000000 -0.266447 4.548703 10.792670 14.336506 6.841704 10.471635 -0.289255 -28.918423 18.121281 -0.000001 -0.000000 -0.000001 0.433024 5.463152 18.703414 -21.538552 11.414983 61.126484 -0.000003 9.978567 -0.000001 5.922933 5.013142 5.522300 -6.439868 1.666961 -14.228012 16.930598 -18.910058 6.552597 -18.036450 17.387162 -11.367579 0.000000 -0.000000 0.000000 -1.149244 3.066346 12.499198 0.610966 -2.307883 29.651982 0.433519 -1.963926 24.893589 0.000001 0.000001 0.000001 1.164035 8.035366 -0.883480 19.769687 0.293766 0.668278 -28.687778 0.267625 -0.547128 -0.259369 -0.000001 0.000000 0.000000 -0.000001 -0.000000 -41.490496 -4.204448 -3.732058 10.099840 -7.981700 0.580565 14.191173 -4.392294 1.586974 3.237413 0.000002 0.000001 0.000001 0.000002 0.000000 
4.354983 82.299812 74.607407 6.935900 0.659245 -0.677473 6.442692 -5.216540 2.733033 14.965438 -1.354366 0.768962 14.964437 -1.344891 0.788139 3.405867 0.005655 0.459179 22.793260 -0.021753 1.074121 -0.000001 -0.000000 0.000001 -0.477627 -12.958897 -22.341885 -29.587143 -32.007585 -48.911692 0.000004 -21.985057 0.000001 9.230134 -2.641187 6.387602 0.209375 3.743343 -18.013794 0.463204 2.285015 -22.915792 0.172983 1.414509 -13.943271 0.000000 0.000001 -0.000000 -0.266443 4.548704 10.792671 14.591319 7.438791 10.160409 0.084707 -29.510628 18.848880 0.000001 -0.000000 -0.000002 0.416070 5.452367 19.399547 -22.020485 12.618164 60.343430 0.000000 7.872280 -0.000005 6.298694 5.153614 5.576055 -6.439868 1.666962 -14.228012 16.660575 -18.213939 6.185582 -18.136208 15.245056 -10.251871 0.000000 0.000000 0.000000 -1.203258 2.665455 13.325601 0.615369 -2.315596 29.761187 0.432018 -1.960701 24.849895 0.000000 0.000001 -0.000000 5.770391 8.345045 -0.531809 17.152388 -0.749322 1.106418 -29.813359 0.484254 -1.310942 -1.450464 -0.000003 -0.000000 -0.000000 0.000000 -0.000000 -39.269476 -4.653794 -3.061514 9.337519 -8.355276 0.685633 19.932293 -4.994924 -1.231162 3.671030 0.000003 -0.000001 0.000000 -0.000002 0.000000 
3.882570 82.372459 77.425110 6.808915 1.366821 -1.918829 6.415457 -5.553778 4.071080 14.958842 -1.400209 1.076964 14.953762 -1.388896 1.097514 3.468873 -0.018680 0.554006 23.318746 -0.002539 1.254155 0.000001 0.000000 -0.000000 -0.439339 -12.698280 -22.249620 -29.220990 -30.878681 -49.991626 -0.000003 -22.517891 -0.000009 9.767578 -2.653056 7.061551 0.360821 4.196083 -19.359017 0.464464 2.287989 -22.947463 0.173649 1.417197 -13.970254 0.000000 0.000001 -0.000001 -0.266444 4.548704 10.792673 14.843852 8.009847 9.859411 -0.057985 -29.258475 18.574597 -0.000002 -0.000001 -0.000002 0.393934 5.507575 20.155388 -23.040450 13.757040 59.385100 0.000003 5.611538 0.000003 7.369103 4.403592 5.414097 -6.439868 1.666961 -14.228013 16.238343 -17.059466 5.592850 -18.130934 12.369870 -8.774204 0.000000 0.000000 0.000000 -1.249491 2.190969 14.594053 0.617625 -2.319536 29.817006 0.428057 -1.952120 24.733713 -0.000000 -0.000001 0.000001 7.596194 8.720658 0.916024 16.890957 -1.271815 2.111062 -28.876387 0.695940 -2.159404 -5.245949 0.000002 0.000000 -0.000000 0.000001 0.000000 -37.316885 -5.227804 -2.015219 10.578296 -8.584792 1.069684 17.442990 -5.271751 -3.324366 3.351096 -0.000007 0.000000 -0.000000 -0.000001 -0.000000 
3.455077 82.920868 80.129128 7.114950 1.358587 -3.074257 6.445339 -5.723936 5.005521 14.909244 -1.406792 1.342019 14.900025 -1.395843 1.363364 3.529927 -0.062404 0.706554 23.751484 -0.024585 1.693088 0.000002 -0.000000 0.000001 -0.399447 -12.394894 -22.187226 -28.910234 -29.431128 -51.269090 0.000003 -22.427012 -0.000002 10.634913 -2.586562 7.954027 0.494366 4.561927 -18.639573 0.455518 2.266772 -22.722337 0.178469 1.436423 -14.163760 -0.000005 -0.000000 -0.000003 -0.266443 4.548704 10.792669 14.825313 7.969000 9.879779 -0.637483 -28.267487 17.416622 -0.000000 -0.000000 -0.000000 0.352548 5.826466 20.629753 -24.353779 14.432337 58.704889 0.000000 3.873139 -0.000001 9.097495 2.789716 5.154556 -6.439868 1.666961 -14.228013 15.992121 -16.343881 5.234745 -18.054379 10.349887 -7.748570 -0.000000 -0.000000 -0.000001 -1.277596 1.918699 15.511503 0.617601 -2.319486 29.816375 0.424353 -1.944074 24.624912 0.000001 -0.000001 -0.000001 6.884457 8.616007 2.403952 20.303820 -0.455317 3.403695 -27.230088 1.316194 -4.302967 -11.340356 0.000003 -0.000001 0.000000 0.000001 0.000000 -35.532731 -6.065167 -1.128902 11.548606 -8.507347 2.115114 15.303425 -5.390627 -3.674046 2.946247 0.000001 0.000001 0.000000 -0.000001 -0.000000 
2.941383 83.569244 82.650879 6.570191 1.012337 -2.964850 6.599893 -5.826651 5.115130 14.835710 -1.411555 1.446680 14.824444 -1.403243 1.468202 3.548379 -0.113421 0.879497 23.811230 -0.106362 2.335232 0.000002 -0.000000 0.000001 -0.359034 -12.069849 -22.140132 -28.611135 -27.827688 -52.642532 0.000005 -22.015474 0.000024 11.651142 -2.440366 8.984289 0.446126 4.459147 -16.168743 0.471451 2.304441 -23.122157 0.189452 1.479235 -14.595380 -0.000002 0.000001 -0.000002 -0.266446 4.548705 10.792675 14.451133 7.112772 10.327055 -1.104625 -27.427760 16.423627 -0.000000 0.000000 -0.000002 0.304938 6.313216 20.647486 -25.480311 14.635620 58.735454 -0.000003 3.092036 0.000010 11.167183 1.034016 5.074800 -6.439868 1.666962 -14.228013 16.065389 -16.560743 5.341597 -18.083153 10.490299 -7.825510 -0.000000 -0.000001 -0.000001 -1.303413 2.002816 15.519735 0.617177 -2.318754 29.805904 0.423181 -1.941502 24.590155 0.000001 -0.000002 0.000001 6.745149 8.316064 2.869043 23.959581 1.239156 4.025978 -23.935751 1.681486 -6.428921 -16.249143 0.000001 -0.000000 -0.000000 -0.000000 -0.000000 -33.310348 -6.525844 -0.745865 12.561897 -7.621327 2.422167 13.378059 -5.455926 -3.750056 1.208829 0.000003 -0.000001 0.000000 0.000001 -0.000000 
2.364815 83.837524 85.059586 5.893901 1.241282 -2.454943 6.732854 -6.030500 4.659367 14.743597 -1.466438 1.397479 14.732931 -1.461038 1.418346 3.479184 -0.153158 0.989678 23.385306 -0.258410 2.867974 0.000002 -0.000000 0.000001 -0.317840 -11.729559 -22.098355 -28.288939 -26.130494 -54.037120 -0.000004 -21.463567 0.000009 12.713747 -2.230136 10.053570 0.245613 3.782362 -14.484395 0.553023 2.486623 -25.073119 0.200571 1.521302 -15.020283 0.000002 0.000001 0.000002 -0.266446 4.548701 10.792673 14.057894 6.143765 10.827212 -1.075137 -27.482661 16.433240 -0.000001 0.000001 -0.000003 0.287510 6.633920 20.308266 -25.984241 14.731200 59.456722 0.000000 3.568171 -0.000020 12.961592 0.028562 5.281903 -6.439866 1.666961 -14.228015 16.410515 -17.541206 5.836480 -18.174107 12.386252 -8.796245 0.000000 0.000001 -0.000002 -1.312401 2.383934 14.803578 0.617417 -2.319176 29.811829 0.424588 -1.944578 24.631634 -0.000000 -0.000003 0.000001 4.095390 7.915855 3.877131 31.645083 1.909962 3.869461 -19.829105 2.108729 -8.445998 -22.392878 -0.000116 0.001392 0.000000 -0.000000 -0.000000 -32.336247 -6.319563 -0.522524 16.136872 -7.614606 1.547598 10.029074 -5.396625 -2.943218 -0.004292 0.000005 0.000001 0.000000 -0.000000 -0.000000 
1.911860 83.641151 87.394470 5.684732 2.181022 -2.200740 6.655794 -6.305252 4.374630 14.638774 -1.560927 1.293152 14.630096 -1.556709 1.312373 3.324171 -0.176974 0.980152 22.608336 -0.477276 2.989697 0.000000 0.000000 -0.000001 -0.276715 -11.386040 -22.058521 -27.951151 -24.393556 -55.395891 0.000004 -20.826720 0.000015 13.756819 -1.989730 11.075594 -0.020493 2.844130 -15.401110 0.687600 2.755713 -28.014800 0.196886 1.507550 -14.881425 -0.000002 0.000000 0.000001 -0.266442 4.548702 10.792670 14.070232 6.135757 10.830597 -0.881126 -27.731642 16.725253 -0.000001 0.000001 -0.000004 0.307693 6.601524 19.863268 -25.792760 15.183873 60.232153 -0.000000 5.400751 -0.000003 13.609651 0.136693 5.595892 -6.439866 1.666962 -14.228013 16.898434 -18.827579 6.511133 -18.183724 14.456850 -9.871811 -0.000000 -0.000000 0.000001 -1.282608 2.865428 14.007185 0.617863 -2.319945 29.822744 0.426809 -1.949410 24.697064 0.000001 0.000003 0.000001 -0.926563 6.943991 5.467285 41.309035 1.745652 3.432045 -14.477100 2.359208 -10.045572 -32.286618 0.115296 -0.367235 0.000000 -0.000000 -0.000000 -32.488075 -6.623882 -0.875912 21.581417 -7.824298 1.300818 4.979943 -5.342484 -2.256003 -0.004293 -0.000000 0.000000 -0.000000 -0.000000 -0.000000 
